<svg width="1680" height="1454" viewBox="0 0 1680 1454" fill="none" xmlns="http://www.w3.org/2000/svg">
<path d="M1680 0H0V1451.47H1680V0Z" fill="#2B2C2D"/>
<path d="M0 987.909L39.9875 974.737C79.8875 961.818 159.863 935.474 239.925 932.941C319.988 930.408 400.137 951.686 480.2 957.512C560.262 963.338 640.237 954.219 720.125 971.951C800.013 989.683 879.987 1034.27 959.875 1040.34C1039.76 1046.17 1119.74 1013.24 1199.8 976.004C1279.86 939.02 1360.01 897.478 1440.08 894.185C1520.14 890.892 1600.11 925.342 1640.01 942.82L1680 960.045V1454H1640.01C1600.11 1454 1520.14 1454 1440.08 1454C1360.01 1454 1279.86 1454 1199.8 1454C1119.74 1454 1039.76 1454 959.875 1454C879.987 1454 800.013 1454 720.125 1454C640.237 1454 560.262 1454 480.2 1454C400.137 1454 319.988 1454 239.925 1454C159.863 1454 79.8875 1454 39.9875 1454H0V987.909Z" fill="#E3D7D6"/>
<path d="M0 1137.36L39.9875 1135.59C79.8875 1134.07 159.863 1130.52 239.925 1121.4C319.988 1112.03 400.137 1096.83 480.2 1070.74C560.262 1044.4 640.237 1007.41 720.125 988.669C800.013 970.178 879.987 970.178 959.875 992.976C1039.76 1015.77 1119.74 1061.37 1199.8 1083.41C1279.86 1105.19 1360.01 1103.67 1440.08 1104.43C1520.14 1105.19 1600.11 1108.74 1640.01 1110.26L1680 1112.03V1454H1640.01C1600.11 1454 1520.14 1454 1440.08 1454C1360.01 1454 1279.86 1454 1199.8 1454C1119.74 1454 1039.76 1454 959.875 1454C879.987 1454 800.013 1454 720.125 1454C640.237 1454 560.262 1454 480.2 1454C400.137 1454 319.988 1454 239.925 1454C159.863 1454 79.8875 1454 39.9875 1454H0V1137.36Z" fill="#C1B6B7"/>
<path d="M0 1137.36L39.9875 1134.07C79.8875 1130.52 159.863 1123.94 239.925 1132.3C319.988 1140.66 400.137 1164.47 480.2 1158.39C560.262 1152.56 640.237 1117.1 720.125 1118.87C800.013 1120.39 879.987 1159.4 959.875 1174.6C1039.76 1189.8 1119.74 1181.19 1199.8 1170.8C1279.86 1160.16 1360.01 1147.49 1440.08 1153.83C1520.14 1160.16 1600.11 1185.49 1640.01 1198.16L1680 1210.82V1454H1640.01C1600.11 1454 1520.14 1454 1440.08 1454C1360.01 1454 1279.86 1454 1199.8 1454C1119.74 1454 1039.76 1454 959.875 1454C879.987 1454 800.013 1454 720.125 1454C640.237 1454 560.262 1454 480.2 1454C400.137 1454 319.988 1454 239.925 1454C159.863 1454 79.8875 1454 39.9875 1454H0V1137.36Z" fill="#A09698"/>
<path d="M0 1188.02L39.9875 1187.26C79.8875 1186.25 159.863 1184.73 239.925 1191.32C319.988 1198.16 400.137 1213.36 480.2 1226.78C560.262 1240.46 640.237 1252.11 720.125 1253.38C800.013 1254.64 879.987 1245.53 959.875 1244.26C1039.76 1242.99 1119.74 1249.58 1199.8 1260.72C1279.86 1271.62 1360.01 1286.82 1440.08 1280.48C1520.14 1274.15 1600.11 1246.29 1640.01 1232.35L1680 1218.42V1454H1640.01C1600.11 1454 1520.14 1454 1440.08 1454C1360.01 1454 1279.86 1454 1199.8 1454C1119.74 1454 1039.76 1454 959.875 1454C879.987 1454 800.013 1454 720.125 1454C640.237 1454 560.262 1454 480.2 1454C400.137 1454 319.988 1454 239.925 1454C159.863 1454 79.8875 1454 39.9875 1454H0V1188.02Z" fill="#80787A"/>
<path d="M0 1296.95L39.9875 1303.28C79.8875 1309.61 159.863 1322.28 239.925 1325.57C319.988 1329.12 400.137 1323.04 480.2 1314.17C560.262 1305.31 640.237 1293.65 720.125 1288.59C800.013 1283.52 879.987 1285.04 959.875 1294.41C1039.76 1303.79 1119.74 1320.51 1199.8 1336.97C1279.86 1353.44 1360.01 1369.65 1440.08 1372.18C1520.14 1374.71 1600.11 1363.57 1640.01 1358.25L1680 1352.68V1454H1640.01C1600.11 1454 1520.14 1454 1440.08 1454C1360.01 1454 1279.86 1454 1199.8 1454C1119.74 1454 1039.76 1454 959.875 1454C879.987 1454 800.013 1454 720.125 1454C640.237 1454 560.262 1454 480.2 1454C400.137 1454 319.988 1454 239.925 1454C159.863 1454 79.8875 1454 39.9875 1454H0V1296.95Z" fill="#625B5E"/>
</svg>
