<svg width="1263" height="507" viewBox="0 0 1263 507" fill="none" xmlns="http://www.w3.org/2000/svg">
<path d="M1263 0H0V505.38H1263V0Z" fill="#2B2C2D"/>
<path d="M1263 0H0V505.38H1263V0Z" fill="#2B2C2D"/>
<path d="M0 343.976L30.062 339.39C60.0583 334.891 120.182 325.719 180.372 324.837C240.562 323.955 300.818 331.363 361.007 333.392C421.197 335.421 481.321 332.245 541.38 338.419C601.438 344.593 661.562 360.116 721.62 362.233C781.679 364.262 841.803 352.796 901.992 339.831C962.182 326.954 1022.44 312.489 1082.63 311.342C1142.82 310.196 1202.94 322.191 1232.94 328.277L1263 334.274V506.262H1232.94C1202.94 506.262 1142.82 506.262 1082.63 506.262C1022.44 506.262 962.182 506.262 901.992 506.262C841.803 506.262 781.679 506.262 721.62 506.262C661.562 506.262 601.438 506.262 541.38 506.262C481.321 506.262 421.197 506.262 361.007 506.262C300.818 506.262 240.562 506.262 180.372 506.262C120.182 506.262 60.0583 506.262 30.062 506.262H0V343.976Z" fill="#E3D7D6"/>
<path d="M0 396.013L30.062 395.396C60.0583 394.867 120.182 393.632 180.372 390.457C240.562 387.193 300.818 381.901 361.007 372.817C421.197 363.644 481.321 350.767 541.38 344.241C601.438 337.802 661.562 337.802 721.62 345.74C781.679 353.678 841.803 369.554 901.992 377.227C962.182 384.812 1022.44 384.283 1082.63 384.547C1142.82 384.812 1202.94 386.047 1232.94 386.576L1263 387.193V506.262H1232.94C1202.94 506.262 1142.82 506.262 1082.63 506.262C1022.44 506.262 962.182 506.262 901.992 506.262C841.803 506.262 781.679 506.262 721.62 506.262C661.562 506.262 601.438 506.262 541.38 506.262C481.321 506.262 421.197 506.262 361.007 506.262C300.818 506.262 240.562 506.262 180.372 506.262C120.182 506.262 60.0583 506.262 30.062 506.262H0V396.013Z" fill="#C1B6B7"/>
<path d="M0 396.013L30.062 394.867C60.0583 393.632 120.182 391.339 180.372 394.249C240.562 397.16 300.818 405.451 361.007 403.334C421.197 401.305 481.321 388.957 541.38 389.575C601.438 390.104 661.562 403.687 721.62 408.979C781.679 414.271 841.803 411.272 901.992 407.656C962.182 403.951 1022.44 399.541 1082.63 401.746C1142.82 403.951 1202.94 412.771 1232.94 417.181L1263 421.591V506.262H1232.94C1202.94 506.262 1142.82 506.262 1082.63 506.262C1022.44 506.262 962.182 506.262 901.992 506.262C841.803 506.262 781.679 506.262 721.62 506.262C661.562 506.262 601.438 506.262 541.38 506.262C481.321 506.262 421.197 506.262 361.007 506.262C300.818 506.262 240.562 506.262 180.372 506.262C120.182 506.262 60.0583 506.262 30.062 506.262H0V396.013Z" fill="#A09698"/>
<path d="M0 413.653L30.062 413.388C60.0583 413.036 120.182 412.506 180.372 414.8C240.562 417.181 300.818 422.473 361.007 427.148C421.197 431.91 481.321 435.967 541.38 436.408C601.438 436.849 661.562 433.674 721.62 433.233C781.679 432.792 841.803 435.085 901.992 438.966C962.182 442.759 1022.44 448.051 1082.63 445.846C1142.82 443.641 1202.94 433.939 1232.94 429.088L1263 424.237V506.262H1232.94C1202.94 506.262 1142.82 506.262 1082.63 506.262C1022.44 506.262 962.182 506.262 901.992 506.262C841.803 506.262 781.679 506.262 721.62 506.262C661.562 506.262 601.438 506.262 541.38 506.262C481.321 506.262 421.197 506.262 361.007 506.262C300.818 506.262 240.562 506.262 180.372 506.262C120.182 506.262 60.0583 506.262 30.062 506.262H0V413.653Z" fill="#80787A"/>
<path d="M0 451.579L30.062 453.784C60.0583 455.989 120.182 460.399 180.372 461.545C240.562 462.78 300.818 460.663 361.007 457.576C421.197 454.489 481.321 450.432 541.38 448.668C601.438 446.904 661.562 447.433 721.62 450.697C781.679 453.96 841.803 459.781 901.992 465.514C962.182 471.247 1022.44 476.892 1082.63 477.774C1142.82 478.656 1202.94 474.775 1232.94 472.923L1263 470.982V506.262H1232.94C1202.94 506.262 1142.82 506.262 1082.63 506.262C1022.44 506.262 962.182 506.262 901.992 506.262C841.803 506.262 781.679 506.262 721.62 506.262C661.562 506.262 601.438 506.262 541.38 506.262C481.321 506.262 421.197 506.262 361.007 506.262C300.818 506.262 240.562 506.262 180.372 506.262C120.182 506.262 60.0583 506.262 30.062 506.262H0V451.579Z" fill="#625B5E"/>
</svg>
