<svg width="1920" height="573" viewBox="0 0 1920 573" fill="none" xmlns="http://www.w3.org/2000/svg">
<g clip-path="url(#clip0_44_21)">
<path d="M1920 0H0V573H1920V0Z" fill="#2B2C2D"/>
<path d="M0 368L18.8 368.7C37.7 369.3 75.3 370.7 113 374.3C150.7 378 188.3 384 226 384.5C263.7 385 301.3 380 339 386.7C376.7 393.3 414.3 411.7 452 407.7C489.7 403.7 527.3 377.3 565 363.8C602.7 350.3 640.3 349.7 678 348.5C715.7 347.3 753.3 345.7 791 357.5C828.7 369.3 866.3 394.7 903.8 407.2C941.3 419.7 978.7 419.3 1016.2 408.2C1053.7 397 1091.3 375 1129 366.2C1166.7 357.3 1204.3 361.7 1242 365C1279.7 368.3 1317.3 370.7 1355 363.7C1392.7 356.7 1430.3 340.3 1468 340.7C1505.7 341 1543.3 358 1581 370.8C1618.7 383.7 1656.3 392.3 1694 386.5C1731.7 380.7 1769.3 360.3 1807 348.5C1844.7 336.7 1882.3 333.3 1901.2 331.7L1920 330V574H1901.2C1882.3 574 1844.7 574 1807 574C1769.3 574 1731.7 574 1694 574C1656.3 574 1618.7 574 1581 574C1543.3 574 1505.7 574 1468 574C1430.3 574 1392.7 574 1355 574C1317.3 574 1279.7 574 1242 574C1204.3 574 1166.7 574 1129 574C1091.3 574 1053.7 574 1016.2 574C978.7 574 941.3 574 903.8 574C866.3 574 828.7 574 791 574C753.3 574 715.7 574 678 574C640.3 574 602.7 574 565 574C527.3 574 489.7 574 452 574C414.3 574 376.7 574 339 574C301.3 574 263.7 574 226 574C188.3 574 150.7 574 113 574C75.3 574 37.7 574 18.8 574H0V368Z" fill="#5D5F6D"/>
<path d="M0 410L18.8 411.3C37.7 412.7 75.3 415.3 113 415.7C150.7 416 188.3 414 226 406C263.7 398 301.3 384 339 378.5C376.7 373 414.3 376 452 383.3C489.7 390.7 527.3 402.3 565 401.5C602.7 400.7 640.3 387.3 678 380.5C715.7 373.7 753.3 373.3 791 371C828.7 368.7 866.3 364.3 903.8 378C941.3 391.7 978.7 423.3 1016.2 430.5C1053.7 437.7 1091.3 420.3 1129 412.7C1166.7 405 1204.3 407 1242 400.8C1279.7 394.7 1317.3 380.3 1355 378.3C1392.7 376.3 1430.3 386.7 1468 393.3C1505.7 400 1543.3 403 1581 407C1618.7 411 1656.3 416 1694 413.8C1731.7 411.7 1769.3 402.3 1807 392.3C1844.7 382.3 1882.3 371.7 1901.2 366.3L1920 361V574H1901.2C1882.3 574 1844.7 574 1807 574C1769.3 574 1731.7 574 1694 574C1656.3 574 1618.7 574 1581 574C1543.3 574 1505.7 574 1468 574C1430.3 574 1392.7 574 1355 574C1317.3 574 1279.7 574 1242 574C1204.3 574 1166.7 574 1129 574C1091.3 574 1053.7 574 1016.2 574C978.7 574 941.3 574 903.8 574C866.3 574 828.7 574 791 574C753.3 574 715.7 574 678 574C640.3 574 602.7 574 565 574C527.3 574 489.7 574 452 574C414.3 574 376.7 574 339 574C301.3 574 263.7 574 226 574C188.3 574 150.7 574 113 574C75.3 574 37.7 574 18.8 574H0V410Z" fill="#53566C"/>
<path d="M0 479L18.8 470.7C37.7 462.3 75.3 445.7 113 441.3C150.7 437 188.3 445 226 452C263.7 459 301.3 465 339 466.7C376.7 468.3 414.3 465.7 452 458C489.7 450.3 527.3 437.7 565 428.2C602.7 418.7 640.3 412.3 678 418.2C715.7 424 753.3 442 791 445.3C828.7 448.7 866.3 437.3 903.8 433.8C941.3 430.3 978.7 434.7 1016.2 440C1053.7 445.3 1091.3 451.7 1129 455.2C1166.7 458.7 1204.3 459.3 1242 455.7C1279.7 452 1317.3 444 1355 434C1392.7 424 1430.3 412 1468 414C1505.7 416 1543.3 432 1581 435C1618.7 438 1656.3 428 1694 419.7C1731.7 411.3 1769.3 404.7 1807 407C1844.7 409.3 1882.3 420.7 1901.2 426.3L1920 432V574H1901.2C1882.3 574 1844.7 574 1807 574C1769.3 574 1731.7 574 1694 574C1656.3 574 1618.7 574 1581 574C1543.3 574 1505.7 574 1468 574C1430.3 574 1392.7 574 1355 574C1317.3 574 1279.7 574 1242 574C1204.3 574 1166.7 574 1129 574C1091.3 574 1053.7 574 1016.2 574C978.7 574 941.3 574 903.8 574C866.3 574 828.7 574 791 574C753.3 574 715.7 574 678 574C640.3 574 602.7 574 565 574C527.3 574 489.7 574 452 574C414.3 574 376.7 574 339 574C301.3 574 263.7 574 226 574C188.3 574 150.7 574 113 574C75.3 574 37.7 574 18.8 574H0V479Z" fill="#494D6A"/>
<path d="M0 478L18.8 474.5C37.7 471 75.3 464 113 466.2C150.7 468.3 188.3 479.7 226 483.7C263.7 487.7 301.3 484.3 339 477.8C376.7 471.3 414.3 461.7 452 456.8C489.7 452 527.3 452 565 455.8C602.7 459.7 640.3 467.3 678 468C715.7 468.7 753.3 462.3 791 461.7C828.7 461 866.3 466 903.8 464.5C941.3 463 978.7 455 1016.2 457.5C1053.7 460 1091.3 473 1129 482.2C1166.7 491.3 1204.3 496.7 1242 499.2C1279.7 501.7 1317.3 501.3 1355 499.3C1392.7 497.3 1430.3 493.7 1468 490.5C1505.7 487.3 1543.3 484.7 1581 480.2C1618.7 475.7 1656.3 469.3 1694 461.7C1731.7 454 1769.3 445 1807 444.2C1844.7 443.3 1882.3 450.7 1901.2 454.3L1920 458V574H1901.2C1882.3 574 1844.7 574 1807 574C1769.3 574 1731.7 574 1694 574C1656.3 574 1618.7 574 1581 574C1543.3 574 1505.7 574 1468 574C1430.3 574 1392.7 574 1355 574C1317.3 574 1279.7 574 1242 574C1204.3 574 1166.7 574 1129 574C1091.3 574 1053.7 574 1016.2 574C978.7 574 941.3 574 903.8 574C866.3 574 828.7 574 791 574C753.3 574 715.7 574 678 574C640.3 574 602.7 574 565 574C527.3 574 489.7 574 452 574C414.3 574 376.7 574 339 574C301.3 574 263.7 574 226 574C188.3 574 150.7 574 113 574C75.3 574 37.7 574 18.8 574H0V478Z" fill="#3F4568"/>
<path d="M0 476L18.8 478.5C37.7 481 75.3 486 113 485.7C150.7 485.3 188.3 479.7 226 483C263.7 486.3 301.3 498.7 339 503.2C376.7 507.7 414.3 504.3 452 498.2C489.7 492 527.3 483 565 478C602.7 473 640.3 472 678 473.3C715.7 474.7 753.3 478.3 791 478.7C828.7 479 866.3 476 903.8 476.7C941.3 477.3 978.7 481.7 1016.2 485.2C1053.7 488.7 1091.3 491.3 1129 495.3C1166.7 499.3 1204.3 504.7 1242 504.2C1279.7 503.7 1317.3 497.3 1355 494.7C1392.7 492 1430.3 493 1468 494.7C1505.7 496.3 1543.3 498.7 1581 496C1618.7 493.3 1656.3 485.7 1694 485.5C1731.7 485.3 1769.3 492.7 1807 498.7C1844.7 504.7 1882.3 509.3 1901.2 511.7L1920 514V574H1901.2C1882.3 574 1844.7 574 1807 574C1769.3 574 1731.7 574 1694 574C1656.3 574 1618.7 574 1581 574C1543.3 574 1505.7 574 1468 574C1430.3 574 1392.7 574 1355 574C1317.3 574 1279.7 574 1242 574C1204.3 574 1166.7 574 1129 574C1091.3 574 1053.7 574 1016.2 574C978.7 574 941.3 574 903.8 574C866.3 574 828.7 574 791 574C753.3 574 715.7 574 678 574C640.3 574 602.7 574 565 574C527.3 574 489.7 574 452 574C414.3 574 376.7 574 339 574C301.3 574 263.7 574 226 574C188.3 574 150.7 574 113 574C75.3 574 37.7 574 18.8 574H0V476Z" fill="#343C66"/>
<path d="M0 514L18.8 517.7C37.7 521.3 75.3 528.7 113 530.7C150.7 532.7 188.3 529.3 226 530.2C263.7 531 301.3 536 339 540.7C376.7 545.3 414.3 549.7 452 545.5C489.7 541.3 527.3 528.7 565 521.5C602.7 514.3 640.3 512.7 678 517C715.7 521.3 753.3 531.7 791 531.2C828.7 530.7 866.3 519.3 903.8 514.5C941.3 509.7 978.7 511.3 1016.2 515.5C1053.7 519.7 1091.3 526.3 1129 531.5C1166.7 536.7 1204.3 540.3 1242 539.5C1279.7 538.7 1317.3 533.3 1355 527.7C1392.7 522 1430.3 516 1468 517.3C1505.7 518.7 1543.3 527.3 1581 535C1618.7 542.7 1656.3 549.3 1694 546.2C1731.7 543 1769.3 530 1807 522.2C1844.7 514.3 1882.3 511.7 1901.2 510.3L1920 509V574H1901.2C1882.3 574 1844.7 574 1807 574C1769.3 574 1731.7 574 1694 574C1656.3 574 1618.7 574 1581 574C1543.3 574 1505.7 574 1468 574C1430.3 574 1392.7 574 1355 574C1317.3 574 1279.7 574 1242 574C1204.3 574 1166.7 574 1129 574C1091.3 574 1053.7 574 1016.2 574C978.7 574 941.3 574 903.8 574C866.3 574 828.7 574 791 574C753.3 574 715.7 574 678 574C640.3 574 602.7 574 565 574C527.3 574 489.7 574 452 574C414.3 574 376.7 574 339 574C301.3 574 263.7 574 226 574C188.3 574 150.7 574 113 574C75.3 574 37.7 574 18.8 574H0V514Z" fill="#283364"/>
</g>
<defs>
<clipPath id="clip0_44_21">
<rect width="1920" height="573" fill="white"/>
</clipPath>
</defs>
</svg>
